<?xml version="1.0" encoding="UTF-8" standalone="no"?>
<svg
   xmlns:dc="http://purl.org/dc/elements/1.1/"
   xmlns:cc="http://creativecommons.org/ns#"
   xmlns:rdf="http://www.w3.org/1999/02/22-rdf-syntax-ns#"
   xmlns:svg="http://www.w3.org/2000/svg"
   xmlns="http://www.w3.org/2000/svg"
   xmlns:sodipodi="http://sodipodi.sourceforge.net/DTD/sodipodi-0.dtd"
   xmlns:inkscape="http://www.inkscape.org/namespaces/inkscape"
   fill="#000000"
   version="1.1"
   x="0px"
   y="0px"
   viewBox="0 0 100 100"
   enable-background="new 0 0 100 100"
   xml:space="preserve"
   id="svg4136"
   inkscape:version="0.91 r13725"
   sodipodi:docname="logo.svg"
   inkscape:export-filename="C:\Users\Will\Downloads\webglue.png"
   inkscape:export-xdpi="72"
   inkscape:export-ydpi="72"><metadata
     id="metadata4148"><rdf:RDF><cc:Work
         rdf:about=""><dc:format>image/svg+xml</dc:format><dc:type
           rdf:resource="http://purl.org/dc/dcmitype/StillImage" /><dc:title></dc:title></cc:Work></rdf:RDF></metadata><defs
     id="defs4146" /><sodipodi:namedview
     pagecolor="#ffffff"
     bordercolor="#666666"
     borderopacity="1"
     objecttolerance="10"
     gridtolerance="10"
     guidetolerance="10"
     inkscape:pageopacity="0"
     inkscape:pageshadow="2"
     inkscape:window-width="1680"
     inkscape:window-height="987"
     id="namedview4144"
     showgrid="false"
     inkscape:zoom="8.2"
     inkscape:cx="50"
     inkscape:cy="50"
     inkscape:window-x="1672"
     inkscape:window-y="-8"
     inkscape:window-maximized="1"
     inkscape:current-layer="svg4136" /><g
     id="g4138"><path
       d="M94.101,5.729c-2.291-2.29-9.197,0.817-20.504,9.192l-0.456-0.457c-1.213-1.215-2.827-1.883-4.543-1.883   c-1.717,0-3.33,0.668-4.543,1.883l-7.381,7.379c-1.541-1.077-4.458-2.625-8.469-2.625c-5.501,0-11.142,2.853-16.767,8.478   L9.634,49.5c-5.963,5.967-5.963,15.673,0,21.638l19.384,19.384C31.906,93.408,35.747,95,39.834,95c4.086,0,7.928-1.592,10.818-4.48   l21.805-21.806c12.446-12.447,8.085-21.925,5.837-25.22l7.396-7.395c2.507-2.504,2.507-6.581,0-9.088l-0.479-0.479   C93.376,15.013,96.378,8.006,94.101,5.729z M70.204,66.461L48.399,88.266c-2.288,2.287-5.329,3.547-8.565,3.547   s-6.277-1.26-8.563-3.545L11.887,68.884c-4.72-4.722-4.72-12.408,0-17.131l21.806-21.804c5.005-5.006,9.889-7.545,14.513-7.545   c4.646,0,7.356,2.595,7.464,2.698l1.063,1.064l18.318,18.318C75.399,44.835,83.463,53.203,70.204,66.461z M83.437,33.847   l-7.261,7.26l-17.128-17.13l7.26-7.259c1.225-1.225,3.355-1.226,4.579,0.001l12.55,12.546C84.7,30.528,84.7,32.584,83.437,33.847z    M82.926,24.247l-7.05-7.047c7.002-5.115,13.838-9.041,15.877-9.111C91.725,10.137,87.921,17.09,82.926,24.247z"
       id="path4140" /><path
       d="M45.859,40.627c-1.187-1.187-2.763-1.84-4.441-1.84c-1.677,0-3.255,0.652-4.441,1.84L25.02,52.585   c-1.187,1.187-1.841,2.763-1.841,4.441s0.654,3.255,1.841,4.44l13.668,13.667c1.186,1.186,2.763,1.84,4.44,1.84   c1.677,0,3.253-0.654,4.439-1.84l11.96-11.958c1.186-1.187,1.838-2.765,1.838-4.442c0-1.677-0.652-3.253-1.838-4.439L45.859,40.627   z M57.479,61.128L45.52,73.085c-1.278,1.277-3.506,1.279-4.784,0L27.067,59.419c-0.64-0.639-0.992-1.489-0.992-2.393   s0.353-1.754,0.992-2.394l11.958-11.957c0.639-0.64,1.489-0.992,2.393-0.992s1.754,0.352,2.393,0.991l13.668,13.667   c0.64,0.64,0.99,1.488,0.99,2.393C58.469,59.638,58.118,60.488,57.479,61.128z"
       id="path4142" /></g><text
     xml:space="preserve"
     style="font-style:normal;font-weight:normal;font-size:17.6644516px;line-height:125%;font-family:sans-serif;letter-spacing:0px;word-spacing:0px;fill:#0046ff;fill-opacity:1;stroke:none;stroke-width:1px;stroke-linecap:butt;stroke-linejoin:miter;stroke-opacity:1"
     x="52.222851"
     y="-5.1825466"
     id="text4150"
     sodipodi:linespacing="125%"
     transform="matrix(0.71185403,0.70232745,-0.70232745,0.71185403,0,0)"><tspan
       sodipodi:role="line"
       id="tspan4152"
       x="52.222851"
       y="-5.1825466">Web</tspan></text>
<text
     xml:space="preserve"
     style="font-style:normal;font-weight:normal;font-size:16.33740997px;line-height:125%;font-family:sans-serif;letter-spacing:0px;word-spacing:0px;fill:#0046ff;fill-opacity:1;stroke:none;stroke-width:1px;stroke-linecap:butt;stroke-linejoin:miter;stroke-opacity:1"
     x="50.812572"
     y="39.338856"
     id="text4150-0"
     sodipodi:linespacing="125%"
     transform="matrix(0.71348042,0.70067517,-0.70067517,0.71348042,0,0)"><tspan
       sodipodi:role="line"
       id="tspan4152-7"
       x="50.812572"
       y="39.338856">Glue</tspan></text>
<path
     style="opacity:1;fill:#ff8000;fill-opacity:1;stroke:#b7ab9e;stroke-width:0.06097561;stroke-linejoin:round;stroke-miterlimit:4;stroke-dasharray:none;stroke-opacity:1"
     d="m 79.431596,20.634093 -3.44327,-3.44486 1.560717,-1.104399 c 5.341412,-3.779705 10.653497,-6.8873897 13.086831,-7.6560794 0.542562,-0.1713953 1.00971,-0.3116278 1.038108,-0.3116278 0.113095,0 -0.117776,0.849588 -0.513664,1.8902442 -0.546234,1.435867 -2.268093,4.761779 -3.693422,7.134146 -1.21559,2.02327 -4.309415,6.76277 -4.485674,6.871704 -0.0585,0.03615 -1.655828,-1.484455 -3.549626,-3.379128 z"
     id="path4172"
     inkscape:connector-curvature="0" /></svg>